<svg width="30" height="29" viewBox="0 0 30 29" fill="none" xmlns="http://www.w3.org/2000/svg">
<path d="M24.0497 0.535156L5.76392 0.535156C2.99484 0.535156 0.750061 2.77994 0.750061 5.54901L0.750061 23.127C0.750061 25.8961 2.99484 28.1409 5.76392 28.1409H24.0497C26.8188 28.1409 29.0636 25.8961 29.0636 23.127V5.54901C29.0636 2.77994 26.8188 0.535156 24.0497 0.535156Z" fill="#330000"/>
<path d="M14.4703 17.102H10.0828L9.1901 19.8751C9.17793 19.9257 9.14851 19.9704 9.1069 20.0016C9.0653 20.0328 9.01411 20.0485 8.96216 20.046H6.73991C6.61318 20.046 6.56886 19.9764 6.60696 19.8371L10.4057 8.89675C10.4437 8.78281 10.4817 8.65302 10.5197 8.50737C10.5693 8.25396 10.5948 7.99639 10.5956 7.73816C10.5931 7.7201 10.5947 7.70168 10.6005 7.68438C10.6063 7.66707 10.616 7.65134 10.6289 7.63844C10.6418 7.62554 10.6575 7.61582 10.6748 7.61004C10.6921 7.60427 10.7105 7.60261 10.7286 7.60518H13.7485C13.837 7.60518 13.8877 7.63684 13.9005 7.70017L18.2121 19.8561C18.2501 19.9828 18.2121 20.0461 18.0981 20.046H15.6289C15.5865 20.0507 15.5438 20.0398 15.5089 20.0154C15.4739 19.9909 15.4491 19.9545 15.439 19.9131L14.4703 17.102ZM10.7665 14.7088H13.7675C13.6916 14.4557 13.6029 14.1708 13.5016 13.8541C13.4002 13.5377 13.2925 13.199 13.1788 12.8379C13.0648 12.4771 12.9508 12.1162 12.8368 11.7553C12.7229 11.3944 12.6184 11.0462 12.5235 10.7106C12.4285 10.3753 12.343 10.0682 12.2671 9.78946H12.2481C12.1411 10.3024 12.008 10.8096 11.8492 11.3089C11.6717 11.8788 11.4913 12.4612 11.3079 13.0564C11.1242 13.6517 10.9437 14.2025 10.7665 14.7088H10.7665Z" fill="#FF9A00"/>
<path d="M20.7759 9.61852C20.5822 9.6263 20.389 9.5931 20.209 9.5211C20.029 9.44909 19.8662 9.3399 19.7313 9.20066C19.5967 9.05539 19.4922 8.88496 19.4238 8.69916C19.3553 8.51336 19.3243 8.31587 19.3324 8.11802C19.3255 7.92214 19.36 7.72701 19.4336 7.54536C19.5073 7.36372 19.6184 7.19965 19.7597 7.06387C19.8997 6.9295 20.065 6.82422 20.2459 6.75413C20.4269 6.68404 20.6199 6.65052 20.8139 6.65552C21.2698 6.65552 21.6275 6.79163 21.8871 7.06387C22.0181 7.20535 22.1199 7.37128 22.1867 7.55217C22.2535 7.73306 22.284 7.92534 22.2764 8.11802C22.2844 8.31664 22.2523 8.51482 22.1821 8.7008C22.112 8.88678 22.0052 9.05677 21.8681 9.20066C21.7247 9.34194 21.5537 9.45201 21.3657 9.52393C21.1778 9.59584 20.977 9.62805 20.7759 9.61852ZM19.4653 19.8561V10.7771C19.4653 10.6632 19.5158 10.6062 19.6173 10.6062H21.9535C22.0547 10.6062 22.1054 10.6632 22.1055 10.7771V19.8561C22.1055 19.9828 22.0548 20.0461 21.9535 20.046H19.6363C19.5224 20.046 19.4654 19.9827 19.4653 19.8561Z" fill="#FF9A00"/>
</svg>
