<!-- <svg width="100%" height="20" viewBox="0 0 19 12" fill="white" xmlns="http://www.w3.org/2000/svg">
<path d="M5.6498 0.379829C6.21684 0.379829 6.73443 0.429 7.20258 0.526314C7.67073 0.623629 8.07049 0.78343 8.40398 1.00572C8.73747 1.22801 8.99627 1.52302 9.18037 1.8918C9.36447 2.26057 9.456 2.71539 9.456 3.25728C9.456 3.84219 9.31924 4.32979 9.04676 4.72007C8.77429 5.11036 8.37032 5.42996 7.83694 5.67888C8.57125 5.88478 9.11935 6.24536 9.48125 6.75959C9.84314 7.27382 10.0241 7.89459 10.0241 8.62086C10.0241 9.20578 9.90731 9.71284 9.67376 10.141C9.44022 10.5692 9.12566 10.9185 8.73011 11.189C8.33455 11.4604 7.88429 11.6602 7.37827 11.7903C6.86909 11.9203 6.34413 11.9859 5.81813 11.9849H0.0415039V0.379829H5.6498ZM5.31631 5.07655C5.78341 5.07655 6.1674 4.96797 6.46827 4.75183C6.76915 4.53466 6.91959 4.1833 6.91853 3.69571C6.91853 3.42527 6.86804 3.20299 6.7681 3.02987C6.66815 2.85675 6.53455 2.72051 6.36728 2.62319C6.20001 2.52588 6.00854 2.45827 5.79182 2.42037C5.5688 2.38247 5.34261 2.363 5.11538 2.36403H2.66313V5.0786L5.31631 5.07655V5.07655ZM5.46675 10.0007C5.71398 10.0017 5.96015 9.97712 6.20106 9.92795C6.43461 9.87878 6.6408 9.79786 6.81859 9.68416C6.99638 9.57045 7.13841 9.41577 7.24466 9.22114C7.34986 9.02651 7.40351 8.77657 7.40351 8.47335C7.40351 7.8782 7.23098 7.45206 6.88592 7.19802C6.54086 6.94295 6.08429 6.81593 5.51725 6.81593H2.66313V10.0017L5.46675 10.0007V10.0007ZM13.3211 9.75689C13.6767 10.0929 14.189 10.2609 14.857 10.2609C15.3357 10.2609 15.7471 10.1441 16.0921 9.91156C16.4372 9.67903 16.6486 9.43216 16.7265 9.17197H18.8126C18.4791 10.1799 17.9668 10.9001 17.2767 11.3334C16.5866 11.7667 15.7523 11.9839 14.7729 11.9839C14.0943 11.9839 13.4821 11.8783 12.9371 11.6673C12.3922 11.4563 11.9303 11.1551 11.5516 10.7649C11.1729 10.3746 10.8804 9.90952 10.6753 9.36763C10.4701 8.82574 10.367 8.22955 10.367 7.58011C10.367 6.95217 10.4722 6.36725 10.6837 5.82536C10.8952 5.28347 11.196 4.81534 11.5853 4.41993C11.9745 4.02453 12.4395 3.71312 12.9792 3.48571C13.5189 3.2583 14.1175 3.1446 14.7739 3.1446C15.5082 3.1446 16.1479 3.28289 16.6939 3.55946C17.2388 3.83604 17.687 4.20686 18.0373 4.67295C18.3876 5.13904 18.6412 5.66966 18.7969 6.26584C18.9525 6.86202 19.0083 7.48484 18.9641 8.13531H12.7383C12.7709 8.88003 12.9655 9.42192 13.3211 9.75689ZM16.0006 5.33674C15.7165 5.03353 15.2852 4.88192 14.7066 4.88192C14.3279 4.88192 14.0133 4.94441 13.764 5.06836C13.5136 5.19333 13.3137 5.34699 13.1633 5.53137C13.0129 5.71576 12.9077 5.91039 12.8466 6.11628C12.7856 6.32218 12.7488 6.50657 12.7383 6.66842H16.5939C16.4814 6.08453 16.2836 5.63995 16.0006 5.33674V5.33674ZM12.3322 0.96884H17.1494V2.26979H12.3322V0.96884V0.96884Z" fill="#272D2B"/>
</svg> -->

<svg xmlns="http://www.w3.org/2000/svg" width="100%" height="20" viewBox="0 0 19 12" fill="white">
  <path d="M5.6498 0.379829C6.21684 0.379829 6.73443 0.429 7.20258 0.526314C7.67073 0.623629 8.07049 0.78343 8.40398 1.00572C8.73747 1.22801 8.99627 1.52302 9.18037 1.8918C9.36447 2.26057 9.456 2.71539 9.456 3.25728C9.456 3.84219 9.31924 4.32979 9.04676 4.72007C8.77429 5.11036 8.37032 5.42996 7.83694 5.67888C8.57125 5.88478 9.11935 6.24536 9.48125 6.75959C9.84314 7.27382 10.0241 7.89459 10.0241 8.62086C10.0241 9.20578 9.90731 9.71284 9.67376 10.141C9.44022 10.5692 9.12566 10.9185 8.73011 11.189C8.33455 11.4604 7.88429 11.6602 7.37827 11.7903C6.86909 11.9203 6.34413 11.9859 5.81813 11.9849H0.0415039V0.379829H5.6498ZM5.31631 5.07655C5.78341 5.07655 6.1674 4.96797 6.46827 4.75183C6.76915 4.53466 6.91959 4.1833 6.91853 3.69571C6.91853 3.42527 6.86804 3.20299 6.7681 3.02987C6.66815 2.85675 6.53455 2.72051 6.36728 2.62319C6.20001 2.52588 6.00854 2.45827 5.79182 2.42037C5.5688 2.38247 5.34261 2.363 5.11538 2.36403H2.66313V5.0786L5.31631 5.07655V5.07655ZM5.46675 10.0007C5.71398 10.0017 5.96015 9.97712 6.20106 9.92795C6.43461 9.87878 6.6408 9.79786 6.81859 9.68416C6.99638 9.57045 7.13841 9.41577 7.24466 9.22114C7.34986 9.02651 7.40351 8.77657 7.40351 8.47335C7.40351 7.8782 7.23098 7.45206 6.88592 7.19802C6.54086 6.94295 6.08429 6.81593 5.51725 6.81593H2.66313V10.0017L5.46675 10.0007V10.0007ZM13.3211 9.75689C13.6767 10.0929 14.189 10.2609 14.857 10.2609C15.3357 10.2609 15.7471 10.1441 16.0921 9.91156C16.4372 9.67903 16.6486 9.43216 16.7265 9.17197H18.8126C18.4791 10.1799 17.9668 10.9001 17.2767 11.3334C16.5866 11.7667 15.7523 11.9839 14.7729 11.9839C14.0943 11.9839 13.4821 11.8783 12.9371 11.6673C12.3922 11.4563 11.9303 11.1551 11.5516 10.7649C11.1729 10.3746 10.8804 9.90952 10.6753 9.36763C10.4701 8.82574 10.367 8.22955 10.367 7.58011C10.367 6.95217 10.4722 6.36725 10.6837 5.82536C10.8952 5.28347 11.196 4.81534 11.5853 4.41993C11.9745 4.02453 12.4395 3.71312 12.9792 3.48571C13.5189 3.2583 14.1175 3.1446 14.7739 3.1446C15.5082 3.1446 16.1479 3.28289 16.6939 3.55946C17.2388 3.83604 17.687 4.20686 18.0373 4.67295C18.3876 5.13904 18.6412 5.66966 18.7969 6.26584C18.9525 6.86202 19.0083 7.48484 18.9641 8.13531H12.7383C12.7709 8.88003 12.9655 9.42192 13.3211 9.75689ZM16.0006 5.33674C15.7165 5.03353 15.2852 4.88192 14.7066 4.88192C14.3279 4.88192 14.0133 4.94441 13.764 5.06836C13.5136 5.19333 13.3137 5.34699 13.1633 5.53137C13.0129 5.71576 12.9077 5.91039 12.8466 6.11628C12.7856 6.32218 12.7488 6.50657 12.7383 6.66842H16.5939C16.4814 6.08453 16.2836 5.63995 16.0006 5.33674V5.33674ZM12.3322 0.96884H17.1494V2.26979H12.3322V0.96884V0.96884Z" fill="#272D2B"></path>
</svg>
