<svg width="26" height="29" viewBox="0 0 26 29" fill="none" xmlns="http://www.w3.org/2000/svg">
<path d="M25.1006 0.535156L22.8822 25.3774L12.9104 28.1409L2.966 25.3813L0.749939 0.535156L25.1006 0.535156Z" fill="#264DE4"/>
<path d="M20.983 23.7955L22.8787 2.56665L12.9252 2.56665L12.9252 26.0285L20.983 23.7955Z" fill="#2965F1"/>
<path d="M5.83014 11.7817L6.10336 14.829H12.9252V11.7817H5.83014Z" fill="#EBEBEB"/>
<path d="M12.9253 5.61401H12.9148H5.28125L5.55837 8.66132H12.9253V5.61401Z" fill="#EBEBEB"/>
<path d="M12.9253 22.8664V19.696L12.912 19.6995L9.51688 18.7831L9.29985 16.3528H7.65011H6.23969L6.66677 21.1374L12.9113 22.8703L12.9253 22.8664Z" fill="#EBEBEB"/>
<path d="M16.6686 14.829L16.3148 18.7811L12.9148 19.6984L12.9148 22.8687L19.1643 21.1374L19.2101 20.6225L19.9265 12.6001L20.0009 11.7818L20.5512 5.61401H12.9148V8.66132H17.2104L16.933 11.7818H12.9148V14.829H16.6686Z" fill="white"/>
</svg>
