<svg xmlns="http://www.w3.org/2000/svg" viewBox="0 0 87.98 87.83"><defs><style>.cls-1{fill:#0ca8e2;}.cls-2{fill:#fdfefe;}</style></defs><g id="Layer_2" data-name="Layer 2"><g id="Layer_2-2" data-name="Layer 2"><path class="cls-1" d="M58.59,87.83H0V30.11L29.78,0H88V58.51Z"/><path class="cls-2" d="M66.72,17.69V30.08c-7.36,0-14.46-.11-21.57,0-9.35.17-14.53,8.8-10.42,17.23,2,4,5.27,5.8,9.67,5.79,7.29,0,14.58,0,22,0,1,4.36.46,8.24.43,12.32-9.17,0-18,.82-26.7-.19C27.52,63.79,20.18,53.1,21.2,39.63S30.66,18,43.67,17.72C51.27,17.58,58.88,17.69,66.72,17.69Z"/></g></g></svg>