<svg width="16" height="23" viewBox="0 0 16 23" fill="none" xmlns="http://www.w3.org/2000/svg">
<path d="M4.41666 22.5352C6.44065 22.5352 8.08331 20.8926 8.08331 18.8686V15.2019H4.41666C2.39266 15.2019 0.75 16.8446 0.75 18.8686C0.75 20.8926 2.39266 22.5352 4.41666 22.5352Z" fill="#0ACF83"/>
<path d="M0.75 11.5351C0.75 9.51107 2.39266 7.86841 4.41666 7.86841H8.08331V15.2017H4.41666C2.39266 15.2017 0.75 13.5591 0.75 11.5351Z" fill="#A259FF"/>
<path d="M0.75 4.20181C0.75 2.17782 2.39266 0.535156 4.41666 0.535156L8.08331 0.535156V7.86847H4.41666C2.39266 7.86847 0.75 6.2258 0.75 4.20181Z" fill="#F24E1E"/>
<path d="M8.08337 0.535156L11.75 0.535156C13.774 0.535156 15.4167 2.17782 15.4167 4.20181C15.4167 6.2258 13.774 7.86847 11.75 7.86847H8.08337V0.535156Z" fill="#FF7262"/>
<path d="M15.4167 11.5351C15.4167 13.5591 13.774 15.2017 11.75 15.2017C9.72604 15.2017 8.08337 13.5591 8.08337 11.5351C8.08337 9.51107 9.72604 7.86841 11.75 7.86841C13.774 7.86841 15.4167 9.51107 15.4167 11.5351Z" fill="#1ABCFE"/>
</svg>
