<svg width="18" height="27" viewBox="0 0 18 27" fill="none" xmlns="http://www.w3.org/2000/svg">
<path d="M4.80481 26.1367C7.15034 26.1367 9.05396 24.1954 9.05396 21.8034V17.4701H4.80481C2.45928 17.4701 0.555664 19.4114 0.555664 21.8034C0.555664 24.1954 2.45928 26.1367 4.80481 26.1367Z" fill="#272D2B"/>
<path d="M0.555664 13.1367C0.555664 10.7447 2.45928 8.80339 4.80481 8.80339H9.05396V17.4701H4.80481C2.45928 17.4701 0.555664 15.5287 0.555664 13.1367Z" fill="#272D2B"/>
<path d="M0.556152 4.47006C0.556152 2.07806 2.45977 0.136726 4.8053 0.136726H9.05445V8.80339H4.8053C2.45977 8.80339 0.556152 6.86206 0.556152 4.47006Z" fill="#272D2B"/>
<path d="M9.0542 0.136726H13.3033C15.6489 0.136726 17.5525 2.07806 17.5525 4.47006C17.5525 6.86206 15.6489 8.80339 13.3033 8.80339H9.0542V0.136726Z" fill="#272D2B"/>
<path d="M17.5525 13.1367C17.5525 15.5287 15.6489 17.4701 13.3033 17.4701C10.9578 17.4701 9.0542 15.5287 9.0542 13.1367C9.0542 10.7447 10.9578 8.80339 13.3033 8.80339C15.6489 8.80339 17.5525 10.7447 17.5525 13.1367Z" fill="#272D2B"/>
</svg>
