<!-- <svg width="28" height="27" viewBox="0 0 28 27" fill="none" xmlns="http://www.w3.org/2000/svg">
<path fill-rule="evenodd" clip-rule="evenodd" d="M14.0885 0.609177C10.8858 0.60814 7.78729 1.71715 5.34774 3.73764C2.90819 5.75813 1.28688 8.55817 0.774087 11.6364C0.261296 14.7147 0.89051 17.8702 2.54907 20.538C4.20764 23.2057 6.78725 25.2115 9.82606 26.1963C10.4959 26.3181 10.746 25.9115 10.746 25.5636C10.746 25.2506 10.7348 24.2179 10.7281 23.1199C6.97701 23.9135 6.1866 21.572 6.1866 21.572C5.57258 20.0501 4.6884 19.6501 4.6884 19.6501C3.46482 18.8348 4.77994 18.8522 4.77994 18.8522C6.13525 18.9456 6.84751 20.2045 6.84751 20.2045C8.05098 22.2112 10.0024 21.6328 10.7705 21.2915C10.8933 20.4436 11.2416 19.8653 11.6279 19.537C8.64268 19.2087 5.48327 18.0825 5.48327 13.0516C5.46323 11.7449 5.96148 10.4811 6.8743 9.52304C6.73364 9.19257 6.27145 7.85767 7.0038 6.04446C7.0038 6.04446 8.13583 5.69225 10.7125 7.39023C12.9233 6.80176 15.2558 6.80176 17.4667 7.39023C20.0299 5.70095 21.1709 6.04446 21.1709 6.04446C21.9032 7.85332 21.4433 9.18823 21.3026 9.52304C22.213 10.4805 22.7095 11.7426 22.6892 13.0473C22.6892 18.0912 19.5365 19.2 16.5334 19.5261C17.0157 19.9327 17.4466 20.7328 17.4466 21.9568C17.4466 23.7135 17.4332 25.1288 17.4332 25.5593C17.4332 25.9093 17.6743 26.3181 18.3576 26.1898C21.392 25.2013 23.9665 23.1943 25.621 20.5275C27.2755 17.8607 27.9021 14.708 27.3888 11.6327C26.8756 8.55742 25.256 5.76008 22.8194 3.74062C20.3829 1.72117 17.2882 0.61123 14.0885 0.609177Z" fill="#272D2B"/>
<path d="M5.71099 19.4587C5.68196 19.524 5.57702 19.5435 5.48771 19.5C5.3984 19.4566 5.33365 19.3674 5.36491 19.3022C5.39617 19.237 5.50111 19.2174 5.58819 19.2609C5.67527 19.3044 5.74225 19.3935 5.70876 19.4587H5.71099Z" fill="#272D2B"/>
<path d="M6.25787 20.0523C6.19312 20.111 6.06809 20.0827 5.98101 19.9914C5.94031 19.9593 5.91371 19.9134 5.90666 19.8628C5.8996 19.8123 5.91262 19.7611 5.94305 19.7196C6.01003 19.6609 6.1306 19.6892 6.21992 19.7805C6.30923 19.8718 6.32486 19.9979 6.25787 20.0523Z" fill="#272D2B"/>
<path d="M6.78946 20.8088C6.70685 20.8654 6.56618 20.8088 6.48803 20.6958C6.40988 20.5827 6.40542 20.4392 6.48803 20.3827C6.57064 20.3262 6.71131 20.3827 6.78946 20.4936C6.86761 20.6045 6.87207 20.7523 6.78946 20.8088V20.8088Z" fill="#272D2B"/>
<path d="M7.5267 21.5394C7.49954 21.5585 7.46874 21.5722 7.43609 21.5796C7.40344 21.587 7.3696 21.588 7.33655 21.5825C7.30349 21.5771 7.27189 21.5653 7.24359 21.5478C7.21528 21.5303 7.19084 21.5075 7.17169 21.4807C7.05335 21.3741 7.01986 21.2241 7.09577 21.1459C7.17169 21.0676 7.31905 21.0872 7.44409 21.1959C7.56913 21.3046 7.59592 21.4524 7.51777 21.5307L7.5267 21.5394Z" fill="#272D2B"/>
<path d="M8.52205 21.9633C8.48856 22.0655 8.33896 22.1133 8.1849 22.0698C8.03084 22.0264 7.93259 21.9046 7.96162 21.8003C7.99065 21.6959 8.14471 21.6481 8.29877 21.6937C8.45283 21.7394 8.55108 21.859 8.52205 21.9633Z" fill="#272D2B"/>
<path d="M9.6252 22.0416C9.6252 22.1503 9.50016 22.2394 9.3394 22.2416C9.17864 22.2438 9.04914 22.159 9.0469 22.0525C9.04467 21.9459 9.17194 21.8524 9.33493 21.8503C9.49793 21.8481 9.6252 21.9351 9.6252 22.0416V22.0416Z" fill="#272D2B"/>
<path d="M10.652 21.872C10.6721 21.9785 10.5605 22.0894 10.4019 22.1155C10.2434 22.1416 10.1005 22.0785 10.0804 21.972C10.0603 21.8655 10.1742 21.7546 10.3305 21.7285C10.4868 21.7024 10.6319 21.7655 10.652 21.872Z" fill="#272D2B"/>
</svg> -->

<svg xmlns="http://www.w3.org/2000/svg" width="28" height="27" viewBox="0 0 28 27" fill="none">
  <path fill-rule="evenodd" clip-rule="evenodd" d="M14.0885 0.609177C10.8858 0.60814 7.78729 1.71715 5.34774 3.73764C2.90819 5.75813 1.28688 8.55817 0.774087 11.6364C0.261296 14.7147 0.89051 17.8702 2.54907 20.538C4.20764 23.2057 6.78725 25.2115 9.82606 26.1963C10.4959 26.3181 10.746 25.9115 10.746 25.5636C10.746 25.2506 10.7348 24.2179 10.7281 23.1199C6.97701 23.9135 6.1866 21.572 6.1866 21.572C5.57258 20.0501 4.6884 19.6501 4.6884 19.6501C3.46482 18.8348 4.77994 18.8522 4.77994 18.8522C6.13525 18.9456 6.84751 20.2045 6.84751 20.2045C8.05098 22.2112 10.0024 21.6328 10.7705 21.2915C10.8933 20.4436 11.2416 19.8653 11.6279 19.537C8.64268 19.2087 5.48327 18.0825 5.48327 13.0516C5.46323 11.7449 5.96148 10.4811 6.8743 9.52304C6.73364 9.19257 6.27145 7.85767 7.0038 6.04446C7.0038 6.04446 8.13583 5.69225 10.7125 7.39023C12.9233 6.80176 15.2558 6.80176 17.4667 7.39023C20.0299 5.70095 21.1709 6.04446 21.1709 6.04446C21.9032 7.85332 21.4433 9.18823 21.3026 9.52304C22.213 10.4805 22.7095 11.7426 22.6892 13.0473C22.6892 18.0912 19.5365 19.2 16.5334 19.5261C17.0157 19.9327 17.4466 20.7328 17.4466 21.9568C17.4466 23.7135 17.4332 25.1288 17.4332 25.5593C17.4332 25.9093 17.6743 26.3181 18.3576 26.1898C21.392 25.2013 23.9665 23.1943 25.621 20.5275C27.2755 17.8607 27.9021 14.708 27.3888 11.6327C26.8756 8.55742 25.256 5.76008 22.8194 3.74062C20.3829 1.72117 17.2882 0.61123 14.0885 0.609177Z" fill="#272D2B"></path>
  <path d="M5.71099 19.4587C5.68196 19.524 5.57702 19.5435 5.48771 19.5C5.3984 19.4566 5.33365 19.3674 5.36491 19.3022C5.39617 19.237 5.50111 19.2174 5.58819 19.2609C5.67527 19.3044 5.74225 19.3935 5.70876 19.4587H5.71099Z" fill="#272D2B"></path>
  <path d="M6.25787 20.0523C6.19312 20.111 6.06809 20.0827 5.98101 19.9914C5.94031 19.9593 5.91371 19.9134 5.90666 19.8628C5.8996 19.8123 5.91262 19.7611 5.94305 19.7196C6.01003 19.6609 6.1306 19.6892 6.21992 19.7805C6.30923 19.8718 6.32486 19.9979 6.25787 20.0523Z" fill="#272D2B"></path>
  <path d="M6.78946 20.8088C6.70685 20.8654 6.56618 20.8088 6.48803 20.6958C6.40988 20.5827 6.40542 20.4392 6.48803 20.3827C6.57064 20.3262 6.71131 20.3827 6.78946 20.4936C6.86761 20.6045 6.87207 20.7523 6.78946 20.8088V20.8088Z" fill="#272D2B"></path>
  <path d="M7.5267 21.5394C7.49954 21.5585 7.46874 21.5722 7.43609 21.5796C7.40344 21.587 7.3696 21.588 7.33655 21.5825C7.30349 21.5771 7.27189 21.5653 7.24359 21.5478C7.21528 21.5303 7.19084 21.5075 7.17169 21.4807C7.05335 21.3741 7.01986 21.2241 7.09577 21.1459C7.17169 21.0676 7.31905 21.0872 7.44409 21.1959C7.56913 21.3046 7.59592 21.4524 7.51777 21.5307L7.5267 21.5394Z" fill="#272D2B"></path>
  <path d="M8.52205 21.9633C8.48856 22.0655 8.33896 22.1133 8.1849 22.0698C8.03084 22.0264 7.93259 21.9046 7.96162 21.8003C7.99065 21.6959 8.14471 21.6481 8.29877 21.6937C8.45283 21.7394 8.55108 21.859 8.52205 21.9633Z" fill="#272D2B"></path>
  <path d="M9.6252 22.0416C9.6252 22.1503 9.50016 22.2394 9.3394 22.2416C9.17864 22.2438 9.04914 22.159 9.0469 22.0525C9.04467 21.9459 9.17194 21.8524 9.33493 21.8503C9.49793 21.8481 9.6252 21.9351 9.6252 22.0416V22.0416Z" fill="#272D2B"></path>
  <path d="M10.652 21.872C10.6721 21.9785 10.5605 22.0894 10.4019 22.1155C10.2434 22.1416 10.1005 22.0785 10.0804 21.972C10.0603 21.8655 10.1742 21.7546 10.3305 21.7285C10.4868 21.7024 10.6319 21.7655 10.652 21.872Z" fill="#272D2B"></path>
</svg>
