<svg width="26" height="29" viewBox="0 0 26 29" fill="none" xmlns="http://www.w3.org/2000/svg">
<path d="M2.96436 25.3897L0.75 0.535156L25.0945 0.535156L22.8802 25.3763L12.9021 28.1409" fill="#E44D26"/>
<path d="M12.9223 26.027L12.9223 2.57495L22.8735 2.57495L20.9745 23.7791" fill="#F16529"/>
<path d="M5.27271 5.61475H12.9223V8.66117H8.61438L8.8962 11.7814H12.9223V14.8211H6.10477L5.27271 5.61475ZM6.23897 16.351H9.29882L9.51354 18.7868L12.9223 19.6994V22.88L6.66842 21.1354" fill="#EBEBEB"/>
<path d="M20.545 5.61475H12.9088V8.66117H20.2632L20.545 5.61475ZM19.9881 11.7814H12.9088V14.8278H16.6665L16.3109 18.7868L12.9088 19.6994L12.9088 22.8666L19.1493 21.1354" fill="white"/>
</svg>
