<!-- <svg width="26" height="26" viewBox="0 0 26 26" fill="none" xmlns="http://www.w3.org/2000/svg">
<path d="M21.8558 21.4109H18.1515V15.6097C18.1515 14.2264 18.1268 12.4456 16.2249 12.4456C14.2955 12.4456 14.0003 13.9527 14.0003 15.509V21.4105H10.2961V9.48092H13.8522V11.1112H13.902C14.6261 9.8732 15.9773 9.13103 17.4107 9.18426C21.1651 9.18426 21.8574 11.6538 21.8574 14.8666L21.8558 21.4109ZM6.11644 7.8502H6.11599C4.93672 7.8502 3.96633 6.87991 3.96633 5.70062C3.96633 4.52133 4.93672 3.55093 6.11599 3.55093C7.29515 3.55093 8.26543 4.52111 8.26565 5.70017V5.70062C8.26565 6.87969 7.29549 7.85009 6.11644 7.8502ZM7.96854 21.4109H4.26042V9.48092H7.96854V21.4109ZM23.7024 0.110901H2.39892C1.3989 0.0996072 0.566388 0.912786 0.554199 1.91282V23.3051C0.565941 24.3057 1.39834 25.1198 2.39892 25.109H23.7024C24.7055 25.1217 25.5408 24.3077 25.5542 23.3051V1.91137C25.5408 0.909207 24.7044 0.0961398 23.7024 0.109335V0.110901Z" fill="#272D2B"/>
</svg> -->

<svg xmlns="http://www.w3.org/2000/svg" width="26" height="26" viewBox="0 0 26 26" fill="none">
  <path d="M21.8558 21.4109H18.1515V15.6097C18.1515 14.2264 18.1268 12.4456 16.2249 12.4456C14.2955 12.4456 14.0003 13.9527 14.0003 15.509V21.4105H10.2961V9.48092H13.8522V11.1112H13.902C14.6261 9.8732 15.9773 9.13103 17.4107 9.18426C21.1651 9.18426 21.8574 11.6538 21.8574 14.8666L21.8558 21.4109ZM6.11644 7.8502H6.11599C4.93672 7.8502 3.96633 6.87991 3.96633 5.70062C3.96633 4.52133 4.93672 3.55093 6.11599 3.55093C7.29515 3.55093 8.26543 4.52111 8.26565 5.70017V5.70062C8.26565 6.87969 7.29549 7.85009 6.11644 7.8502ZM7.96854 21.4109H4.26042V9.48092H7.96854V21.4109ZM23.7024 0.110901H2.39892C1.3989 0.0996072 0.566388 0.912786 0.554199 1.91282V23.3051C0.565941 24.3057 1.39834 25.1198 2.39892 25.109H23.7024C24.7055 25.1217 25.5408 24.3077 25.5542 23.3051V1.91137C25.5408 0.909207 24.7044 0.0961398 23.7024 0.109335V0.110901Z" fill="#272D2B"></path>
</svg>
