<svg width="100%" height="29" viewBox="0 0 240 234" fill="none" xmlns="http://www.w3.org/2000/svg">
<path d="M42.5 0H197.5C221 0 240 19 240 42.5V191.5C240 215 221 234 197.5 234H42.5C19 234 0 215 0 191.5V42.5C0 19 19 0 42.5 0Z" fill="#00005B"/>
<path d="M57 164.1V61.2C57 60.5 57.3 60.1 58 60.1C59.7 60.1 61.3 60.1 63.6 60C66 59.9 68.5 59.9 71.2 59.8C73.9 59.7 76.8 59.7 79.9 59.6C83 59.5 86 59.5 89 59.5C97.2 59.5 104 60.5 109.6 62.6C114.6 64.3 119.2 67.1 123 70.8C126.2 74 128.7 77.9 130.3 82.2C131.8 86.4 132.6 90.7 132.6 95.2C132.6 103.8 130.6 110.9 126.6 116.5C122.6 122.1 117 126.3 110.5 128.7C103.7 131.2 96.2 132.1 88 132.1C85.6 132.1 84 132.1 83 132C82 131.9 80.6 131.9 78.7 131.9V164C78.8 164.7 78.3 165.3 77.6 165.4C77.5 165.4 77.4 165.4 77.2 165.4H58.2C57.4 165.4 57 165 57 164.1ZM78.8 79.4V113C80.2 113.1 81.5 113.2 82.7 113.2H88C91.9 113.2 95.8 112.6 99.5 111.4C102.7 110.5 105.5 108.6 107.7 106.1C109.8 103.6 110.8 100.2 110.8 95.8C110.9 92.7 110.1 89.6 108.5 86.9C106.8 84.3 104.4 82.3 101.5 81.2C97.8 79.7 93.8 79.1 89.7 79.2C87.1 79.2 84.8 79.2 82.9 79.3C80.9 79.2 79.5 79.3 78.8 79.4Z" fill="#9999FF"/>
<path d="M146.6 85.2H164.1C165.1 85.2 165.9 85.9 166.2 86.8C166.5 87.6 166.7 88.4 166.8 89.3C167 90.3 167.2 91.4 167.3 92.4C167.4 93.5 167.5 94.7 167.5 96C170.5 92.5 174.1 89.6 178.2 87.4C182.8 84.8 188.1 83.5 193.4 83.5C194.1 83.4 194.7 83.9 194.8 84.6C194.8 84.7 194.8 84.8 194.8 85V104.5C194.8 105.3 194.3 105.6 193.2 105.6C189.6 105.5 185.9 105.8 182.4 106.6C179.5 107.2 176.7 108.1 174 109.3C172.1 110.2 170.3 111.4 168.9 113V164C168.9 165 168.5 165.4 167.6 165.4H147.9C147.1 165.5 146.4 165 146.3 164.2C146.3 164.1 146.3 163.9 146.3 163.8V108.4C146.3 106 146.3 103.5 146.2 100.9C146.1 98.3 146.1 95.7 146 93.1C146 90.8 145.8 88.6 145.6 86.3C145.5 85.8 145.8 85.3 146.3 85.2C146.3 85.1 146.5 85.1 146.6 85.2Z" fill="#9999FF"/>
</svg>
