<svg width="34" height="32" viewBox="0 0 34 32" fill="none" xmlns="http://www.w3.org/2000/svg">
<path d="M27.889 0.140869H6.60158C3.37797 0.140869 0.764709 2.66166 0.764709 5.77121V25.5105C0.764709 28.6201 3.37797 31.1409 6.60158 31.1409H27.889C31.1126 31.1409 33.7259 28.6201 33.7259 25.5105V5.77121C33.7259 2.66166 31.1126 0.140869 27.889 0.140869Z" fill="#001E36"/>
<path d="M8.18665 21.8799V8.25066C8.18665 8.15134 8.2309 8.10136 8.31936 8.10136C8.55494 8.10136 8.77004 8.09803 9.09448 8.09069C9.41857 8.0837 9.76867 8.0766 10.1448 8.06937C10.5207 8.06235 10.9187 8.05524 11.3388 8.04803C11.7589 8.04104 12.1753 8.03748 12.5881 8.03735C13.7082 8.03735 14.6516 8.17244 15.4183 8.44262C16.11 8.66829 16.7407 9.0399 17.2647 9.53039C17.7088 9.95554 18.0521 10.4686 18.2707 11.0341C18.4776 11.5845 18.5824 12.1657 18.5803 12.7511C18.5803 13.8889 18.3076 14.8273 17.7622 15.5665C17.2132 16.3088 16.4415 16.8708 15.551 17.1769C14.6223 17.5111 13.5904 17.6245 12.4554 17.6245C12.131 17.6245 11.9025 17.6209 11.77 17.6138C11.6373 17.6068 11.4383 17.6032 11.173 17.6032V21.8586C11.1769 21.8847 11.1744 21.9113 11.1657 21.9363C11.1571 21.9612 11.1425 21.984 11.1232 22.0026C11.1039 22.0212 11.0804 22.0352 11.0545 22.0436C11.0286 22.0519 11.001 22.0543 10.974 22.0506H8.34142C8.23815 22.0506 8.18665 21.9939 8.18665 21.8799ZM11.173 10.6608V15.1061C11.3644 15.1205 11.5413 15.1276 11.7036 15.1275H12.4333C12.9702 15.1257 13.5035 15.0436 14.0143 14.884C14.4524 14.7585 14.8438 14.5142 15.142 14.1802C15.4294 13.8532 15.5731 13.3982 15.5732 12.8151C15.5848 12.4025 15.4735 11.9954 15.2525 11.642C15.0201 11.3003 14.6843 11.0359 14.2907 10.8848C13.7767 10.6921 13.2277 10.6014 12.6765 10.6182C12.3227 10.6182 12.0095 10.6217 11.7368 10.6288C11.4639 10.6362 11.2759 10.6468 11.173 10.6608V10.6608Z" fill="#31A8FF"/>
<path d="M27.1297 14.2979C26.7142 14.092 26.2716 13.9413 25.8141 13.85C25.31 13.7384 24.7946 13.6812 24.2773 13.6794C23.9976 13.6721 23.7182 13.7044 23.4482 13.7754C23.2763 13.8123 23.1235 13.9067 23.017 14.042C22.9449 14.1501 22.9065 14.276 22.9064 14.4046C22.9105 14.5293 22.9571 14.6493 23.0391 14.7458C23.1683 14.8916 23.3261 15.0112 23.5034 15.0978C23.8187 15.2615 24.1435 15.4075 24.4763 15.535C25.2184 15.7746 25.9275 16.1005 26.588 16.5055C27.0379 16.7794 27.4102 17.1568 27.6714 17.6039C27.8911 18.0273 28.0011 18.4957 27.9921 18.969C28.0053 19.594 27.8201 20.208 27.4614 20.7286C27.0773 21.2572 26.5439 21.668 25.9246 21.9124C25.2537 22.1967 24.4245 22.3389 23.4371 22.339C22.8098 22.3451 22.1836 22.2879 21.5687 22.1684C21.0842 22.0827 20.6125 21.9394 20.1646 21.7418C20.1162 21.7177 20.076 21.6808 20.0486 21.6355C20.0212 21.5902 20.0077 21.5382 20.0098 21.4858V19.1823C20.0071 19.1597 20.0109 19.1369 20.0206 19.1162C20.0304 19.0956 20.0458 19.0779 20.0651 19.065C20.0841 19.0546 20.1059 19.0501 20.1276 19.052C20.1494 19.0539 20.17 19.0622 20.1867 19.0756C20.7157 19.3765 21.2902 19.596 21.8893 19.7262C22.4174 19.8538 22.959 19.9218 23.5034 19.9288C24.0192 19.9288 24.3988 19.8648 24.6422 19.7368C24.752 19.6883 24.845 19.6101 24.9097 19.5117C24.9745 19.4133 25.0083 19.2988 25.007 19.1823C25.007 18.9977 24.8965 18.8199 24.6754 18.6491C24.4543 18.4784 24.0046 18.2722 23.3265 18.0305C22.6322 17.7974 21.9739 17.4745 21.3697 17.0707C20.9374 16.7807 20.5815 16.3973 20.3304 15.9509C20.113 15.5306 20.003 15.0662 20.0098 14.5965C20.0086 14.0322 20.1693 13.4785 20.4741 12.9969C20.8217 12.4664 21.3209 12.0442 21.9114 11.7811C22.5599 11.4685 23.3706 11.3121 24.3437 11.3119C24.9135 11.3074 25.4828 11.3467 26.0463 11.4292C26.4543 11.4791 26.8531 11.5832 27.2316 11.7384C27.2616 11.7467 27.2892 11.7617 27.3122 11.782C27.3352 11.8024 27.353 11.8276 27.3642 11.8557C27.3792 11.9078 27.3866 11.9617 27.3864 12.0157V14.17C27.3879 14.195 27.3826 14.22 27.3709 14.2425C27.3593 14.265 27.3417 14.2841 27.32 14.2979C27.2905 14.3121 27.2579 14.3195 27.2249 14.3195C27.1919 14.3195 27.1593 14.3121 27.1297 14.2979V14.2979Z" fill="#31A8FF"/>
</svg>
