<svg width="26" height="26" viewBox="0 0 26 26" fill="none" xmlns="http://www.w3.org/2000/svg">
<path d="M23.5218 9.20212C24.7434 9.39566 25.7388 9.5455 25.9676 9.9977C26.2241 10.5103 24.8938 10.5415 24.2234 10.5535C21.01 10.6081 19.0723 10.6635 18.9753 11.6212C18.849 12.854 20.3485 14.0951 21.8292 15.8356C23.1818 17.424 24.7198 18.9914 24.2762 20.4538C23.724 22.2747 21.1785 22.6597 18.7552 22.6602C16.4336 22.6619 14.2344 22.3353 13.3105 22.1744C12.1598 21.9752 12.3308 21.4764 12.6379 21.3159C12.98 21.1369 14.9365 21.1324 16.2965 21.0616C17.4154 21.004 20.6654 21.0055 21.172 20.2752C21.7934 19.3815 20.2721 17.8515 18.8751 16.2491C17.1321 14.2498 15.2174 12.186 16.2306 10.6784C17.5419 8.72816 21.3778 8.86193 23.5218 9.20212Z" fill="#B61313"/>
<path d="M13.2142 0.803894C15.6429 0.699592 18.5168 1.1692 19.0523 2.72435C19.9297 5.27313 15.4817 8.98966 11.6056 10.814C10.6558 11.2612 10.0797 11.3839 9.83975 11.3534C9.61064 11.3246 9.57528 11.1174 9.6498 10.9746C9.78799 10.7067 10.4127 10.1606 11.2497 9.56708C15.6129 6.47469 17.0315 4.20634 16.2077 3.28671C15.6793 2.6979 13.4674 2.2889 11.1707 2.2889C10.5471 2.2889 8.90867 2.42015 8.74047 1.8963C8.60332 1.46721 10.8026 0.907191 13.2142 0.803894Z" fill="#B61313"/>
<path d="M7.78632 12.4221C9.80476 12.3199 12.2567 12.6262 13.6339 13.5427C14.3187 13.9977 14.8002 14.8358 14.5214 15.7965C13.7266 18.5227 10.7598 21.8212 4.16726 24.3557C2.071 25.1619 0.422778 25.4701 0.0768819 25.2538C-0.295064 25.0214 0.786099 23.2223 1.11147 22.625C2.16382 20.6913 3.47874 18.8083 4.76054 17.0844C5.23272 16.4497 5.96143 15.3496 6.62131 15.4377C7.21218 15.5164 6.52004 16.686 6.06494 17.4295C5.30018 18.6772 3.19357 22.1433 3.88847 22.3502C5.42473 22.8086 12.633 18.0395 11.5701 15.3831C11.0774 14.1506 7.94762 14.033 5.97679 14.033C5.08004 14.033 3.12198 14.2172 3.01364 13.6202C2.89684 13.0694 5.98852 12.5146 7.78632 12.4221Z" fill="#B61313"/>
</svg>
