<svg fill="white" height="45px" xmlns="http://www.w3.org/2000/svg" viewBox="0 0 394.16 82.8"><g id="Layer_2" data-name="Layer 2"><g id="Layer_1-2" data-name="Layer 1"><path d="M24.88,22c3-.4,8.56,1.6,11.28,3L26.24,58l8.08-3.36v.64L19.12,62a4.38,4.38,0,0,1-1.28-1.44l9.68-31.44h-.24C24.8,35.36,11,56.56,7.36,61.36,2.8,60.56,0,55.2,0,51,0,38,19.12,22.32,24.88,22ZM10,55c.64-.24,14.16-20,16.48-25.84l.88-1.68a12.45,12.45,0,0,0-7.68-2c-3.84,0-11.92,17.84-11.92,24.64C7.76,52.8,8.4,54.72,10,55Z"/><path d="M46.8,26.56l-7.6,3.36v-.64l14.72-6.72A4.38,4.38,0,0,1,55.2,24L43.92,59h.24c6.16-13.92,17-36.56,22.4-37,4.8.08,7,2.48,7,6.16,0,3.2-7.76,23.36-10.64,31.36h.32c6.16-13.92,17.2-37,22.56-37.52,4.8.08,7,2.48,7,6.16,0,4.8-9.2,29.2-9.36,31.76l8.8-4.24.32.48L81.28,62a9.79,9.79,0,0,1-4.64-4c0-4.64,8.48-26.72,8.48-29.52a2.38,2.38,0,0,0-2.48-2.4C80,27.2,73.2,39.44,63.84,59.52l-.48,1.28L57,60.72c0-4.64,8.8-29.44,8.8-32.24a2.25,2.25,0,0,0-2.48-2.4C60.08,27.44,51,45.6,44.88,59l-.72,1.76L36,61Z"/><path d="M119.12,22c3-.4,8.56,1.6,11.28,3l-9.92,33,8.08-3.36v.64L113.36,62a4.38,4.38,0,0,1-1.28-1.44l9.68-31.44h-.24C119,35.36,105.2,56.56,101.6,61.36,97,60.56,94.24,55.2,94.24,51,94.24,38,113.36,22.32,119.12,22ZM104.24,55c.64-.24,14.16-20,16.48-25.84l.88-1.68a12.45,12.45,0,0,0-7.68-2c-3.84,0-11.92,17.84-11.92,24.64C102,52.8,102.64,54.72,104.24,55Z"/><path d="M140.72,26.56l-8.08,3.36v-.64l15.2-6.72A4.38,4.38,0,0,1,149.12,24L137,59h.24c6.16-13.92,18.88-36.56,24.24-37,4.8.08,6.88,2.48,7,6.16,0,4.8-9.2,29-9.36,31.6L167,55.92l.32.48L156.88,62a9.79,9.79,0,0,1-4.64-4c0-4.64,8.48-26.72,8.48-29.52a2.51,2.51,0,0,0-2.48-2.56c-3,1.6-14.16,19.68-20.32,33.12l-.72,1.76-8.16.56Z"/><path d="M193.84,22a13,13,0,0,1,4.72.56l.08-.16,6.88-19.84L196.16,5.2V4.4L212.48,0,213,1.2,194.32,58l8.08-3.36v.64L187.2,62a4.38,4.38,0,0,1-1.28-1.44l10.56-31.44h-.24c-2.48,6.24-16.32,27.44-19.92,32.24C171.76,60.56,169,55.2,169,51,169,38,188.08,22.32,193.84,22ZM179,55c.64-.24,14.16-20,16.48-25.84l.8-1.76a12.71,12.71,0,0,0-7.6-1.92c-3.84,0-11.92,17.84-11.92,24.64C176.72,52.8,177.36,54.72,179,55Z"/><path d="M228.56,22c3-.4,8.56,1.6,11.28,3l-9.92,33L238,54.64v.64L222.8,62a4.38,4.38,0,0,1-1.28-1.44l9.68-31.44H231c-2.48,6.24-16.32,27.44-19.92,32.24-4.56-.8-7.36-6.16-7.36-10.32C203.68,38,222.8,22.32,228.56,22ZM213.68,55c.64-.24,14.16-20,16.48-25.84l.88-1.68a12.45,12.45,0,0,0-7.68-2c-3.84,0-11.92,17.84-11.92,24.64C211.44,52.8,212.08,54.72,213.68,55Z"/><path d="M230.56,74.08h.24c.16,1.2,12.88,4.08,14.8,3.52,7-2.56,16.48-11.68,24.4-21.76l-7,6.4-.16-.16,1.6-36.72-6.32,2.24-.32-.48,13.44-5.2a2.92,2.92,0,0,1,.72,2l-1.76,29.44c0,.48.16,1.2.8,1.28C277.6,46,283.12,36.8,285,30.48c-1.28-2.64-5-6.8-8.16-6.56a25.6,25.6,0,0,1,4.72-4.64c5.28,1.2,5.76,6.08,5.12,9.44-2.4,12.56-26.88,44.64-40.72,49.44a100.43,100.43,0,0,1-14,4.08c-2.16,0-5.92-.56-7.2-1.68Z"/><path d="M307.2,22c3-.4,8.56,1.6,11.28,3l-9.92,33,8.08-3.36v.64L301.44,62a4.38,4.38,0,0,1-1.28-1.44l9.68-31.44h-.24c-2.48,6.24-16.32,27.44-19.92,32.24-4.56-.8-7.36-6.16-7.36-10.32C282.32,38,301.44,22.32,307.2,22ZM292.32,55c.64-.24,14.16-20,16.48-25.84l.88-1.68a12.45,12.45,0,0,0-7.68-2c-3.84,0-11.92,17.84-11.92,24.64C290.08,52.8,290.72,54.72,292.32,55Z"/><path d="M328.8,26.56l-8.08,3.36v-.64l15.2-6.72A4.38,4.38,0,0,1,337.2,24L325,59h.24c6.16-13.92,18.88-36.56,24.24-37,4.8.08,6.88,2.48,7,6.16,0,4.8-9.2,29-9.36,31.6L355,55.92l.32.48L345,62a9.79,9.79,0,0,1-4.64-4c0-4.64,8.48-26.72,8.48-29.52a2.51,2.51,0,0,0-2.48-2.56c-3,1.6-14.16,19.68-20.32,33.12l-.72,1.76-8.16.56Z"/><path d="M356.16,74.32c2.32,1.44,7,4.16,8.72,4.16,4.56,0,6.24-1.6,10.48-17.68l9.92-31.68H385C382.56,35.36,368.72,57.2,365.12,62c-4.56-.8-7.76-6.16-7.76-10.32,0-10.4,17.12-29.76,26.16-29.76a14.24,14.24,0,0,1,3.84.64l.08-.16.88-2.08,5.84,2v1.2l-13,41.84c-3.76,6-11.76,12.8-19.12,17.44-4.48,0-9-3.2-13.28-5.92Zm11.6-18.72c.64-.24,14.16-20.64,16.48-26.48l.8-1.76a12.92,12.92,0,0,0-6.56-2c-5.68,0-13.36,19.36-13.36,25.36C365.12,53.44,366.16,55.36,367.76,55.6Z"/></g></g></svg>
