<svg width="30" height="29" viewBox="0 0 30 29" fill="none" xmlns="http://www.w3.org/2000/svg">
<path d="M4.82654 17.627C7.07795 17.627 8.90307 15.8018 8.90307 13.5504C8.90307 11.299 7.07795 9.47388 4.82654 9.47388C2.57513 9.47388 0.75 11.299 0.75 13.5504C0.75 15.8018 2.57513 17.627 4.82654 17.627Z" fill="#E9500E"/>
<path d="M21.8038 8.68823C24.0552 8.68823 25.8803 6.8631 25.8803 4.61169C25.8803 2.36028 24.0552 0.535156 21.8038 0.535156C19.5524 0.535156 17.7272 2.36028 17.7272 4.61169C17.7272 6.8631 19.5524 8.68823 21.8038 8.68823Z" fill="#E9500E"/>
<path d="M14.0205 24.0419C12.5797 23.7373 11.2247 23.1159 10.0537 22.2228C8.8827 21.3297 7.92507 20.1873 7.25019 18.8784C6.15933 19.3737 4.94303 19.5232 3.76471 19.3068C4.57971 21.322 5.87722 23.1061 7.54322 24.5024C9.20922 25.8987 11.1927 26.8643 13.3193 27.3145C14.2706 27.5183 15.2412 27.6182 16.214 27.6124C15.4656 26.6312 15.0477 25.4378 15.0204 24.2041C14.6847 24.1668 14.3493 24.1123 14.0205 24.0419Z" fill="#E9500E"/>
<path d="M20.8854 28.1409C23.1368 28.1409 24.9619 26.3157 24.9619 24.0643C24.9619 21.8129 23.1368 19.9878 20.8854 19.9878C18.634 19.9878 16.8088 21.8129 16.8088 24.0643C16.8088 26.3157 18.634 28.1409 20.8854 28.1409Z" fill="#E9500E"/>
<path d="M26.5581 22.567C28.3056 20.3624 29.3113 17.6617 29.4313 14.8511C29.5513 12.0406 28.7796 9.26398 27.2264 6.91846C26.7556 8.02719 25.9553 8.96442 24.934 9.60319C25.7495 11.1427 26.1484 12.8687 26.0911 14.61C26.0338 16.3512 25.5223 18.0472 24.6074 19.5298C25.5617 20.3111 26.2445 21.3742 26.5581 22.567Z" fill="#E9500E"/>
<path d="M4.51202 7.70427C4.61548 7.69859 4.719 7.69578 4.82256 7.69583C5.91481 7.69662 6.98527 8.00146 7.91407 8.5762C8.8127 7.27821 10.0075 6.21287 11.3996 5.46834C12.7917 4.72381 14.3411 4.32149 15.9196 4.29468C15.9855 3.09242 16.417 1.93897 17.1563 0.988631C12.03 0.582661 7.04886 3.22799 4.51202 7.70427Z" fill="#E9500E"/>
</svg>
